<?xml version="1.0" encoding="UTF-8" standalone="no"?>
<svg
   viewBox="0 0 1407.8845 1407.8716"
   version="1.1"
   xmlns="http://www.w3.org/2000/svg"
   xmlns:svg="http://www.w3.org/2000/svg">
  preserveAspectRatio="none"
  <defs
     id="defs1230">
    <clipPath
       id="clip-6">
      <path
         clip-rule="nonzero"
         d="M 209,363 H 1602 V 1756 H 209 Z m 0,0"
         id="path328" />
    </clipPath>
    <clipPath
       id="clip-7">
      <path
         clip-rule="nonzero"
         d="m 1423.0781,1524.6094 c -39.289,43.6601 -84.8086,83.0117 -136.2695,116.6992 -30.3281,19.8633 -61.5977,37.0312 -93.6172,51.5898 -184.5625,84.0235 -392.35546,81.043 -570.20312,2.1329 -86.10156,-38.1719 -165.18359,-94.1407 -231.19922,-166.6094 -24.66015,-27.1016 -47.51172,-56.4727 -68.21875,-88.1016 -91.33984,-139.5117 -126.08984,-299.7109 -109.875,-453.53905 9.97266,-94.97266 39.3711,-187.51953 86.89844,-271.3125 52.83203,-93.23828 128.11719,-175.64844 223.96094,-238.39844 74.21875,-48.58984 154.25,-81.14844 236.08984,-98.55078 94.69531,-20.17969 191.78906,-20.00781 284.95707,-0.87109 175.1601,35.9414 336.5195,138.99218 442.1992,300.41015 7.1094,10.86328 13.8711,21.83985 20.2773,32.92969 49.5235,85.49219 78.8438,177.66016 89.1719,270.66016 21.75,195.16016 -40.0391,394.07036 -174.1719,542.96096 z m 0,0"
         id="path329" />
    </clipPath>
    <clipPath
       id="clip-8">
      <path
         clip-rule="nonzero"
         d="m 1423.0781,1524.6094 c -39.289,43.6601 -84.8086,83.0117 -136.2695,116.6992 -30.3281,19.8633 -61.5977,37.0312 -93.6172,51.5898 -184.5625,84.0235 -392.35546,81.043 -570.20312,2.1329 -86.10156,-38.1719 -165.18359,-94.1407 -231.19922,-166.6094 -24.66015,-27.1016 -47.51172,-56.4727 -68.21875,-88.1016 -91.33984,-139.5117 -126.08984,-299.7109 -109.875,-453.53905 9.97266,-94.97266 39.3711,-187.51953 86.89844,-271.3125 52.83203,-93.23828 128.11719,-175.64844 223.96094,-238.39844 74.21875,-48.58984 154.25,-81.14844 236.08984,-98.55078 94.69531,-20.17969 191.78906,-20.00781 284.95707,-0.87109 175.1601,35.9414 336.5195,138.99218 442.1992,300.41015 7.1094,10.86328 13.8711,21.83985 20.2773,32.92969 49.5235,85.49219 78.8438,177.66016 89.1719,270.66016 21.75,195.16016 -40.0391,394.07036 -174.1719,542.96096"
         id="path330" />
    </clipPath>
    <radialGradient
       id="radial-pattern-2"
       gradientUnits="userSpaceOnUse"
       cx="0"
       cy="0"
       fx="0"
       fy="0"
       r="695.84998"
       gradientTransform="translate(905.685,1059.2)">
      <stop
         offset="0"
         stop-color="rgb(76.673889%, 62.954712%, 89.634705%)"
         stop-opacity="1"
         id="stop330" />
      <stop
         offset="0.0078125"
         stop-color="rgb(76.394653%, 62.684631%, 89.381409%)"
         stop-opacity="1"
         id="stop331" />
      <stop
         offset="0.0117188"
         stop-color="rgb(76.20697%, 62.503052%, 89.213562%)"
         stop-opacity="1"
         id="stop332" />
      <stop
         offset="0.015625"
         stop-color="rgb(76.020813%, 62.322998%, 89.044189%)"
         stop-opacity="1"
         id="stop333" />
      <stop
         offset="0.0195312"
         stop-color="rgb(75.83313%, 62.141418%, 88.876343%)"
         stop-opacity="1"
         id="stop334" />
      <stop
         offset="0.0234375"
         stop-color="rgb(75.646973%, 61.961365%, 88.70697%)"
         stop-opacity="1"
         id="stop335" />
      <stop
         offset="0.0273438"
         stop-color="rgb(75.45929%, 61.779785%, 88.539124%)"
         stop-opacity="1"
         id="stop336" />
      <stop
         offset="0.03125"
         stop-color="rgb(75.273132%, 61.599731%, 88.371277%)"
         stop-opacity="1"
         id="stop337" />
      <stop
         offset="0.0351562"
         stop-color="rgb(75.085449%, 61.419678%, 88.201904%)"
         stop-opacity="1"
         id="stop338" />
      <stop
         offset="0.0390625"
         stop-color="rgb(74.899292%, 61.238098%, 88.034058%)"
         stop-opacity="1"
         id="stop339" />
      <stop
         offset="0.0429688"
         stop-color="rgb(74.711609%, 61.058044%, 87.864685%)"
         stop-opacity="1"
         id="stop340" />
      <stop
         offset="0.046875"
         stop-color="rgb(74.525452%, 60.876465%, 87.696838%)"
         stop-opacity="1"
         id="stop341" />
      <stop
         offset="0.0507812"
         stop-color="rgb(74.339294%, 60.696411%, 87.527466%)"
         stop-opacity="1"
         id="stop342" />
      <stop
         offset="0.0546875"
         stop-color="rgb(74.151611%, 60.514832%, 87.359619%)"
         stop-opacity="1"
         id="stop343" />
      <stop
         offset="0.0585938"
         stop-color="rgb(73.965454%, 60.334778%, 87.190247%)"
         stop-opacity="1"
         id="stop344" />
      <stop
         offset="0.0625"
         stop-color="rgb(73.777771%, 60.153198%, 87.0224%)"
         stop-opacity="1"
         id="stop345" />
      <stop
         offset="0.0664062"
         stop-color="rgb(73.591614%, 59.973145%, 86.854553%)"
         stop-opacity="1"
         id="stop346" />
      <stop
         offset="0.0703125"
         stop-color="rgb(73.403931%, 59.791565%, 86.685181%)"
         stop-opacity="1"
         id="stop347" />
      <stop
         offset="0.0742188"
         stop-color="rgb(73.217773%, 59.611511%, 86.517334%)"
         stop-opacity="1"
         id="stop348" />
      <stop
         offset="0.078125"
         stop-color="rgb(73.03009%, 59.429932%, 86.347961%)"
         stop-opacity="1"
         id="stop349" />
      <stop
         offset="0.0820312"
         stop-color="rgb(72.843933%, 59.249878%, 86.180115%)"
         stop-opacity="1"
         id="stop350" />
      <stop
         offset="0.0859375"
         stop-color="rgb(72.65625%, 59.069824%, 86.010742%)"
         stop-opacity="1"
         id="stop351" />
      <stop
         offset="0.0898438"
         stop-color="rgb(72.470093%, 58.888245%, 85.842896%)"
         stop-opacity="1"
         id="stop352" />
      <stop
         offset="0.09375"
         stop-color="rgb(72.28241%, 58.708191%, 85.675049%)"
         stop-opacity="1"
         id="stop353" />
      <stop
         offset="0.0976562"
         stop-color="rgb(72.096252%, 58.526611%, 85.505676%)"
         stop-opacity="1"
         id="stop354" />
      <stop
         offset="0.101562"
         stop-color="rgb(71.908569%, 58.346558%, 85.33783%)"
         stop-opacity="1"
         id="stop355" />
      <stop
         offset="0.105469"
         stop-color="rgb(71.722412%, 58.164978%, 85.168457%)"
         stop-opacity="1"
         id="stop356" />
      <stop
         offset="0.109375"
         stop-color="rgb(71.534729%, 57.984924%, 85.00061%)"
         stop-opacity="1"
         id="stop357" />
      <stop
         offset="0.113281"
         stop-color="rgb(71.348572%, 57.803345%, 84.831238%)"
         stop-opacity="1"
         id="stop358" />
      <stop
         offset="0.117188"
         stop-color="rgb(71.160889%, 57.623291%, 84.663391%)"
         stop-opacity="1"
         id="stop359" />
      <stop
         offset="0.121094"
         stop-color="rgb(70.974731%, 57.441711%, 84.495544%)"
         stop-opacity="1"
         id="stop360" />
      <stop
         offset="0.125"
         stop-color="rgb(70.787048%, 57.261658%, 84.326172%)"
         stop-opacity="1"
         id="stop361" />
      <stop
         offset="0.128906"
         stop-color="rgb(70.600891%, 57.080078%, 84.158325%)"
         stop-opacity="1"
         id="stop362" />
      <stop
         offset="0.132812"
         stop-color="rgb(70.413208%, 56.900024%, 83.988953%)"
         stop-opacity="1"
         id="stop363" />
      <stop
         offset="0.136719"
         stop-color="rgb(70.227051%, 56.718445%, 83.821106%)"
         stop-opacity="1"
         id="stop364" />
      <stop
         offset="0.140625"
         stop-color="rgb(70.040894%, 56.538391%, 83.651733%)"
         stop-opacity="1"
         id="stop365" />
      <stop
         offset="0.144531"
         stop-color="rgb(69.85321%, 56.358337%, 83.483887%)"
         stop-opacity="1"
         id="stop366" />
      <stop
         offset="0.148438"
         stop-color="rgb(69.667053%, 56.176758%, 83.31604%)"
         stop-opacity="1"
         id="stop367" />
      <stop
         offset="0.152344"
         stop-color="rgb(69.47937%, 55.996704%, 83.146667%)"
         stop-opacity="1"
         id="stop368" />
      <stop
         offset="0.15625"
         stop-color="rgb(69.293213%, 55.815125%, 82.978821%)"
         stop-opacity="1"
         id="stop369" />
      <stop
         offset="0.160156"
         stop-color="rgb(69.10553%, 55.635071%, 82.809448%)"
         stop-opacity="1"
         id="stop370" />
      <stop
         offset="0.164062"
         stop-color="rgb(68.919373%, 55.453491%, 82.641602%)"
         stop-opacity="1"
         id="stop371" />
      <stop
         offset="0.167969"
         stop-color="rgb(68.731689%, 55.273438%, 82.472229%)"
         stop-opacity="1"
         id="stop372" />
      <stop
         offset="0.171875"
         stop-color="rgb(68.545532%, 55.091858%, 82.304382%)"
         stop-opacity="1"
         id="stop373" />
      <stop
         offset="0.175781"
         stop-color="rgb(68.357849%, 54.911804%, 82.136536%)"
         stop-opacity="1"
         id="stop374" />
      <stop
         offset="0.179688"
         stop-color="rgb(68.171692%, 54.730225%, 81.967163%)"
         stop-opacity="1"
         id="stop375" />
      <stop
         offset="0.183594"
         stop-color="rgb(67.984009%, 54.550171%, 81.799316%)"
         stop-opacity="1"
         id="stop376" />
      <stop
         offset="0.1875"
         stop-color="rgb(67.797852%, 54.368591%, 81.629944%)"
         stop-opacity="1"
         id="stop377" />
      <stop
         offset="0.191406"
         stop-color="rgb(67.610168%, 54.188538%, 81.462097%)"
         stop-opacity="1"
         id="stop378" />
      <stop
         offset="0.195312"
         stop-color="rgb(67.424011%, 54.008484%, 81.292725%)"
         stop-opacity="1"
         id="stop379" />
      <stop
         offset="0.199219"
         stop-color="rgb(67.236328%, 53.826904%, 81.124878%)"
         stop-opacity="1"
         id="stop380" />
      <stop
         offset="0.203125"
         stop-color="rgb(67.050171%, 53.646851%, 80.957031%)"
         stop-opacity="1"
         id="stop381" />
      <stop
         offset="0.207031"
         stop-color="rgb(66.862488%, 53.465271%, 80.787659%)"
         stop-opacity="1"
         id="stop382" />
      <stop
         offset="0.210938"
         stop-color="rgb(66.676331%, 53.285217%, 80.619812%)"
         stop-opacity="1"
         id="stop383" />
      <stop
         offset="0.214844"
         stop-color="rgb(66.488647%, 53.103638%, 80.450439%)"
         stop-opacity="1"
         id="stop384" />
      <stop
         offset="0.21875"
         stop-color="rgb(66.30249%, 52.923584%, 80.282593%)"
         stop-opacity="1"
         id="stop385" />
      <stop
         offset="0.222656"
         stop-color="rgb(66.114807%, 52.742004%, 80.11322%)"
         stop-opacity="1"
         id="stop386" />
      <stop
         offset="0.226562"
         stop-color="rgb(65.92865%, 52.561951%, 79.945374%)"
         stop-opacity="1"
         id="stop387" />
      <stop
         offset="0.230469"
         stop-color="rgb(65.742493%, 52.380371%, 79.777527%)"
         stop-opacity="1"
         id="stop388" />
      <stop
         offset="0.234375"
         stop-color="rgb(65.55481%, 52.200317%, 79.608154%)"
         stop-opacity="1"
         id="stop389" />
      <stop
         offset="0.238281"
         stop-color="rgb(65.368652%, 52.018738%, 79.440308%)"
         stop-opacity="1"
         id="stop390" />
      <stop
         offset="0.242188"
         stop-color="rgb(65.180969%, 51.838684%, 79.270935%)"
         stop-opacity="1"
         id="stop391" />
      <stop
         offset="0.246094"
         stop-color="rgb(64.994812%, 51.65863%, 79.103088%)"
         stop-opacity="1"
         id="stop392" />
      <stop
         offset="0.25"
         stop-color="rgb(64.807129%, 51.477051%, 78.933716%)"
         stop-opacity="1"
         id="stop393" />
      <stop
         offset="0.253906"
         stop-color="rgb(64.526367%, 51.205444%, 78.68042%)"
         stop-opacity="1"
         id="stop394" />
      <stop
         offset="0.261719"
         stop-color="rgb(64.152527%, 50.843811%, 78.344727%)"
         stop-opacity="1"
         id="stop395" />
      <stop
         offset="0.269531"
         stop-color="rgb(63.778687%, 50.482178%, 78.007507%)"
         stop-opacity="1"
         id="stop396" />
      <stop
         offset="0.277344"
         stop-color="rgb(63.404846%, 50.120544%, 77.670288%)"
         stop-opacity="1"
         id="stop397" />
      <stop
         offset="0.285156"
         stop-color="rgb(63.031006%, 49.758911%, 77.333069%)"
         stop-opacity="1"
         id="stop398" />
      <stop
         offset="0.292969"
         stop-color="rgb(62.657166%, 49.398804%, 76.99585%)"
         stop-opacity="1"
         id="stop399" />
      <stop
         offset="0.300781"
         stop-color="rgb(62.283325%, 49.03717%, 76.65863%)"
         stop-opacity="1"
         id="stop400" />
      <stop
         offset="0.308594"
         stop-color="rgb(61.909485%, 48.675537%, 76.321411%)"
         stop-opacity="1"
         id="stop401" />
      <stop
         offset="0.316406"
         stop-color="rgb(61.53717%, 48.313904%, 75.985718%)"
         stop-opacity="1"
         id="stop402" />
      <stop
         offset="0.324219"
         stop-color="rgb(61.16333%, 47.952271%, 75.648499%)"
         stop-opacity="1"
         id="stop403" />
      <stop
         offset="0.332031"
         stop-color="rgb(60.78949%, 47.590637%, 75.311279%)"
         stop-opacity="1"
         id="stop404" />
      <stop
         offset="0.339844"
         stop-color="rgb(60.415649%, 47.229004%, 74.97406%)"
         stop-opacity="1"
         id="stop405" />
      <stop
         offset="0.347656"
         stop-color="rgb(60.041809%, 46.867371%, 74.636841%)"
         stop-opacity="1"
         id="stop406" />
      <stop
         offset="0.355469"
         stop-color="rgb(59.667969%, 46.505737%, 74.299622%)"
         stop-opacity="1"
         id="stop407" />
      <stop
         offset="0.363281"
         stop-color="rgb(59.294128%, 46.144104%, 73.962402%)"
         stop-opacity="1"
         id="stop408" />
      <stop
         offset="0.371094"
         stop-color="rgb(58.920288%, 45.782471%, 73.626709%)"
         stop-opacity="1"
         id="stop409" />
      <stop
         offset="0.378906"
         stop-color="rgb(58.546448%, 45.420837%, 73.28949%)"
         stop-opacity="1"
         id="stop410" />
      <stop
         offset="0.386719"
         stop-color="rgb(58.172607%, 45.059204%, 72.952271%)"
         stop-opacity="1"
         id="stop411" />
      <stop
         offset="0.394531"
         stop-color="rgb(57.798767%, 44.697571%, 72.615051%)"
         stop-opacity="1"
         id="stop412" />
      <stop
         offset="0.402344"
         stop-color="rgb(57.424927%, 44.337463%, 72.277832%)"
         stop-opacity="1"
         id="stop413" />
      <stop
         offset="0.410156"
         stop-color="rgb(57.051086%, 43.97583%, 71.940613%)"
         stop-opacity="1"
         id="stop414" />
      <stop
         offset="0.417969"
         stop-color="rgb(56.677246%, 43.614197%, 71.603394%)"
         stop-opacity="1"
         id="stop415" />
      <stop
         offset="0.425781"
         stop-color="rgb(56.303406%, 43.252563%, 71.2677%)"
         stop-opacity="1"
         id="stop416" />
      <stop
         offset="0.433594"
         stop-color="rgb(55.929565%, 42.89093%, 70.930481%)"
         stop-opacity="1"
         id="stop417" />
      <stop
         offset="0.441406"
         stop-color="rgb(55.555725%, 42.529297%, 70.593262%)"
         stop-opacity="1"
         id="stop418" />
      <stop
         offset="0.449219"
         stop-color="rgb(55.181885%, 42.167664%, 70.256042%)"
         stop-opacity="1"
         id="stop419" />
      <stop
         offset="0.457031"
         stop-color="rgb(54.808044%, 41.80603%, 69.918823%)"
         stop-opacity="1"
         id="stop420" />
      <stop
         offset="0.464844"
         stop-color="rgb(54.434204%, 41.444397%, 69.581604%)"
         stop-opacity="1"
         id="stop421" />
      <stop
         offset="0.472656"
         stop-color="rgb(54.060364%, 41.082764%, 69.244385%)"
         stop-opacity="1"
         id="stop422" />
      <stop
         offset="0.480469"
         stop-color="rgb(53.686523%, 40.72113%, 68.907166%)"
         stop-opacity="1"
         id="stop423" />
      <stop
         offset="0.488281"
         stop-color="rgb(53.312683%, 40.359497%, 68.571472%)"
         stop-opacity="1"
         id="stop424" />
      <stop
         offset="0.496094"
         stop-color="rgb(52.940369%, 39.997864%, 68.234253%)"
         stop-opacity="1"
         id="stop425" />
      <stop
         offset="0.503906"
         stop-color="rgb(52.659607%, 39.727783%, 67.980957%)"
         stop-opacity="1"
         id="stop426" />
      <stop
         offset="0.507812"
         stop-color="rgb(52.47345%, 39.547729%, 67.81311%)"
         stop-opacity="1"
         id="stop427" />
      <stop
         offset="0.511719"
         stop-color="rgb(52.285767%, 39.36615%, 67.643738%)"
         stop-opacity="1"
         id="stop428" />
      <stop
         offset="0.515625"
         stop-color="rgb(52.099609%, 39.186096%, 67.475891%)"
         stop-opacity="1"
         id="stop429" />
      <stop
         offset="0.519531"
         stop-color="rgb(51.911926%, 39.004517%, 67.308044%)"
         stop-opacity="1"
         id="stop430" />
      <stop
         offset="0.523438"
         stop-color="rgb(51.725769%, 38.824463%, 67.138672%)"
         stop-opacity="1"
         id="stop431" />
      <stop
         offset="0.527344"
         stop-color="rgb(51.538086%, 38.642883%, 66.970825%)"
         stop-opacity="1"
         id="stop432" />
      <stop
         offset="0.53125"
         stop-color="rgb(51.351929%, 38.46283%, 66.801453%)"
         stop-opacity="1"
         id="stop433" />
      <stop
         offset="0.535156"
         stop-color="rgb(51.164246%, 38.28125%, 66.633606%)"
         stop-opacity="1"
         id="stop434" />
      <stop
         offset="0.539062"
         stop-color="rgb(50.978088%, 38.101196%, 66.464233%)"
         stop-opacity="1"
         id="stop435" />
      <stop
         offset="0.542969"
         stop-color="rgb(50.790405%, 37.919617%, 66.296387%)"
         stop-opacity="1"
         id="stop436" />
      <stop
         offset="0.546875"
         stop-color="rgb(50.604248%, 37.739563%, 66.12854%)"
         stop-opacity="1"
         id="stop437" />
      <stop
         offset="0.550781"
         stop-color="rgb(50.416565%, 37.557983%, 65.959167%)"
         stop-opacity="1"
         id="stop438" />
      <stop
         offset="0.554688"
         stop-color="rgb(50.230408%, 37.37793%, 65.791321%)"
         stop-opacity="1"
         id="stop439" />
      <stop
         offset="0.558594"
         stop-color="rgb(50.042725%, 37.19635%, 65.621948%)"
         stop-opacity="1"
         id="stop440" />
      <stop
         offset="0.5625"
         stop-color="rgb(49.856567%, 37.016296%, 65.454102%)"
         stop-opacity="1"
         id="stop441" />
      <stop
         offset="0.566406"
         stop-color="rgb(49.668884%, 36.836243%, 65.284729%)"
         stop-opacity="1"
         id="stop442" />
      <stop
         offset="0.570312"
         stop-color="rgb(49.482727%, 36.654663%, 65.116882%)"
         stop-opacity="1"
         id="stop443" />
      <stop
         offset="0.574219"
         stop-color="rgb(49.295044%, 36.474609%, 64.949036%)"
         stop-opacity="1"
         id="stop444" />
      <stop
         offset="0.578125"
         stop-color="rgb(49.108887%, 36.29303%, 64.779663%)"
         stop-opacity="1"
         id="stop445" />
      <stop
         offset="0.582031"
         stop-color="rgb(48.921204%, 36.112976%, 64.611816%)"
         stop-opacity="1"
         id="stop446" />
      <stop
         offset="0.585938"
         stop-color="rgb(48.735046%, 35.931396%, 64.442444%)"
         stop-opacity="1"
         id="stop447" />
      <stop
         offset="0.589844"
         stop-color="rgb(48.548889%, 35.751343%, 64.274597%)"
         stop-opacity="1"
         id="stop448" />
      <stop
         offset="0.59375"
         stop-color="rgb(48.361206%, 35.569763%, 64.105225%)"
         stop-opacity="1"
         id="stop449" />
      <stop
         offset="0.597656"
         stop-color="rgb(48.175049%, 35.389709%, 63.937378%)"
         stop-opacity="1"
         id="stop450" />
      <stop
         offset="0.601562"
         stop-color="rgb(47.987366%, 35.20813%, 63.769531%)"
         stop-opacity="1"
         id="stop451" />
      <stop
         offset="0.605469"
         stop-color="rgb(47.801208%, 35.028076%, 63.600159%)"
         stop-opacity="1"
         id="stop452" />
      <stop
         offset="0.609375"
         stop-color="rgb(47.613525%, 34.846497%, 63.432312%)"
         stop-opacity="1"
         id="stop453" />
      <stop
         offset="0.613281"
         stop-color="rgb(47.427368%, 34.666443%, 63.262939%)"
         stop-opacity="1"
         id="stop454" />
      <stop
         offset="0.617188"
         stop-color="rgb(47.239685%, 34.486389%, 63.095093%)"
         stop-opacity="1"
         id="stop455" />
      <stop
         offset="0.621094"
         stop-color="rgb(47.053528%, 34.30481%, 62.92572%)"
         stop-opacity="1"
         id="stop456" />
      <stop
         offset="0.625"
         stop-color="rgb(46.865845%, 34.124756%, 62.757874%)"
         stop-opacity="1"
         id="stop457" />
      <stop
         offset="0.628906"
         stop-color="rgb(46.585083%, 33.853149%, 62.504578%)"
         stop-opacity="1"
         id="stop458" />
      <stop
         offset="0.636719"
         stop-color="rgb(46.211243%, 33.491516%, 62.167358%)"
         stop-opacity="1"
         id="stop459" />
      <stop
         offset="0.644531"
         stop-color="rgb(45.837402%, 33.129883%, 61.830139%)"
         stop-opacity="1"
         id="stop460" />
      <stop
         offset="0.652344"
         stop-color="rgb(45.463562%, 32.76825%, 61.494446%)"
         stop-opacity="1"
         id="stop461" />
      <stop
         offset="0.660156"
         stop-color="rgb(45.089722%, 32.406616%, 61.157227%)"
         stop-opacity="1"
         id="stop462" />
      <stop
         offset="0.667969"
         stop-color="rgb(44.715881%, 32.044983%, 60.820007%)"
         stop-opacity="1"
         id="stop463" />
      <stop
         offset="0.675781"
         stop-color="rgb(44.343567%, 31.68335%, 60.482788%)"
         stop-opacity="1"
         id="stop464" />
      <stop
         offset="0.683594"
         stop-color="rgb(43.969727%, 31.321716%, 60.145569%)"
         stop-opacity="1"
         id="stop465" />
      <stop
         offset="0.691406"
         stop-color="rgb(43.595886%, 30.960083%, 59.80835%)"
         stop-opacity="1"
         id="stop466" />
      <stop
         offset="0.699219"
         stop-color="rgb(43.222046%, 30.59845%, 59.47113%)"
         stop-opacity="1"
         id="stop467" />
      <stop
         offset="0.707031"
         stop-color="rgb(42.848206%, 30.236816%, 59.133911%)"
         stop-opacity="1"
         id="stop468" />
      <stop
         offset="0.714844"
         stop-color="rgb(42.474365%, 29.876709%, 58.798218%)"
         stop-opacity="1"
         id="stop469" />
      <stop
         offset="0.722656"
         stop-color="rgb(42.100525%, 29.515076%, 58.460999%)"
         stop-opacity="1"
         id="stop470" />
      <stop
         offset="0.730469"
         stop-color="rgb(41.726685%, 29.153442%, 58.123779%)"
         stop-opacity="1"
         id="stop471" />
      <stop
         offset="0.738281"
         stop-color="rgb(41.352844%, 28.791809%, 57.78656%)"
         stop-opacity="1"
         id="stop472" />
      <stop
         offset="0.746094"
         stop-color="rgb(40.979004%, 28.430176%, 57.449341%)"
         stop-opacity="1"
         id="stop473" />
      <stop
         offset="0.753906"
         stop-color="rgb(40.698242%, 28.158569%, 57.197571%)"
         stop-opacity="1"
         id="stop474" />
      <stop
         offset="0.757812"
         stop-color="rgb(40.512085%, 27.978516%, 57.028198%)"
         stop-opacity="1"
         id="stop475" />
      <stop
         offset="0.761719"
         stop-color="rgb(40.324402%, 27.796936%, 56.860352%)"
         stop-opacity="1"
         id="stop476" />
      <stop
         offset="0.765625"
         stop-color="rgb(40.138245%, 27.616882%, 56.690979%)"
         stop-opacity="1"
         id="stop477" />
      <stop
         offset="0.769531"
         stop-color="rgb(39.952087%, 27.435303%, 56.523132%)"
         stop-opacity="1"
         id="stop478" />
      <stop
         offset="0.773438"
         stop-color="rgb(39.764404%, 27.255249%, 56.355286%)"
         stop-opacity="1"
         id="stop479" />
      <stop
         offset="0.777344"
         stop-color="rgb(39.578247%, 27.075195%, 56.185913%)"
         stop-opacity="1"
         id="stop480" />
      <stop
         offset="0.78125"
         stop-color="rgb(39.390564%, 26.893616%, 56.018066%)"
         stop-opacity="1"
         id="stop481" />
      <stop
         offset="0.785156"
         stop-color="rgb(39.204407%, 26.713562%, 55.848694%)"
         stop-opacity="1"
         id="stop482" />
      <stop
         offset="0.789062"
         stop-color="rgb(39.016724%, 26.531982%, 55.680847%)"
         stop-opacity="1"
         id="stop483" />
      <stop
         offset="0.792969"
         stop-color="rgb(38.830566%, 26.351929%, 55.511475%)"
         stop-opacity="1"
         id="stop484" />
      <stop
         offset="0.796875"
         stop-color="rgb(38.642883%, 26.170349%, 55.343628%)"
         stop-opacity="1"
         id="stop485" />
      <stop
         offset="0.800781"
         stop-color="rgb(38.456726%, 25.990295%, 55.175781%)"
         stop-opacity="1"
         id="stop486" />
      <stop
         offset="0.804688"
         stop-color="rgb(38.269043%, 25.808716%, 55.006409%)"
         stop-opacity="1"
         id="stop487" />
      <stop
         offset="0.808594"
         stop-color="rgb(38.082886%, 25.628662%, 54.838562%)"
         stop-opacity="1"
         id="stop488" />
      <stop
         offset="0.8125"
         stop-color="rgb(37.895203%, 25.447083%, 54.669189%)"
         stop-opacity="1"
         id="stop489" />
      <stop
         offset="0.816406"
         stop-color="rgb(37.614441%, 25.175476%, 54.415894%)"
         stop-opacity="1"
         id="stop490" />
      <stop
         offset="0.824219"
         stop-color="rgb(37.240601%, 24.815369%, 54.0802%)"
         stop-opacity="1"
         id="stop491" />
      <stop
         offset="0.832031"
         stop-color="rgb(36.86676%, 24.453735%, 53.742981%)"
         stop-opacity="1"
         id="stop492" />
      <stop
         offset="0.839844"
         stop-color="rgb(36.49292%, 24.092102%, 53.405762%)"
         stop-opacity="1"
         id="stop493" />
      <stop
         offset="0.847656"
         stop-color="rgb(36.11908%, 23.730469%, 53.068542%)"
         stop-opacity="1"
         id="stop494" />
      <stop
         offset="0.855469"
         stop-color="rgb(35.746765%, 23.368835%, 52.731323%)"
         stop-opacity="1"
         id="stop495" />
      <stop
         offset="0.863281"
         stop-color="rgb(35.372925%, 23.007202%, 52.394104%)"
         stop-opacity="1"
         id="stop496" />
      <stop
         offset="0.871094"
         stop-color="rgb(34.999084%, 22.645569%, 52.056885%)"
         stop-opacity="1"
         id="stop497" />
      <stop
         offset="0.878906"
         stop-color="rgb(34.718323%, 22.375488%, 51.805115%)"
         stop-opacity="1"
         id="stop498" />
      <stop
         offset="0.882812"
         stop-color="rgb(34.532166%, 22.193909%, 51.635742%)"
         stop-opacity="1"
         id="stop499" />
      <stop
         offset="0.886719"
         stop-color="rgb(34.344482%, 22.013855%, 51.467896%)"
         stop-opacity="1"
         id="stop500" />
      <stop
         offset="0.890625"
         stop-color="rgb(34.158325%, 21.832275%, 51.300049%)"
         stop-opacity="1"
         id="stop501" />
      <stop
         offset="0.894531"
         stop-color="rgb(33.970642%, 21.652222%, 51.130676%)"
         stop-opacity="1"
         id="stop502" />
      <stop
         offset="0.898438"
         stop-color="rgb(33.784485%, 21.470642%, 50.96283%)"
         stop-opacity="1"
         id="stop503" />
      <stop
         offset="0.902344"
         stop-color="rgb(33.596802%, 21.290588%, 50.793457%)"
         stop-opacity="1"
         id="stop504" />
      <stop
         offset="0.90625"
         stop-color="rgb(33.410645%, 21.109009%, 50.62561%)"
         stop-opacity="1"
         id="stop505" />
      <stop
         offset="0.910156"
         stop-color="rgb(33.129883%, 20.837402%, 50.372314%)"
         stop-opacity="1"
         id="stop506" />
      <stop
         offset="0.917969"
         stop-color="rgb(32.756042%, 20.475769%, 50.035095%)"
         stop-opacity="1"
         id="stop507" />
      <stop
         offset="0.925781"
         stop-color="rgb(32.382202%, 20.115662%, 49.697876%)"
         stop-opacity="1"
         id="stop508" />
      <stop
         offset="0.933594"
         stop-color="rgb(32.008362%, 19.754028%, 49.360657%)"
         stop-opacity="1"
         id="stop509" />
      <stop
         offset="0.941406"
         stop-color="rgb(31.7276%, 19.482422%, 49.108887%)"
         stop-opacity="1"
         id="stop510" />
      <stop
         offset="0.945312"
         stop-color="rgb(31.541443%, 19.302368%, 48.94104%)"
         stop-opacity="1"
         id="stop511" />
      <stop
         offset="0.949219"
         stop-color="rgb(31.355286%, 19.120789%, 48.771667%)"
         stop-opacity="1"
         id="stop512" />
      <stop
         offset="0.953125"
         stop-color="rgb(31.167603%, 18.940735%, 48.603821%)"
         stop-opacity="1"
         id="stop513" />
      <stop
         offset="0.957031"
         stop-color="rgb(30.886841%, 18.669128%, 48.350525%)"
         stop-opacity="1"
         id="stop514" />
      <stop
         offset="0.964844"
         stop-color="rgb(30.513%, 18.307495%, 48.013306%)"
         stop-opacity="1"
         id="stop515" />
      <stop
         offset="0.972656"
         stop-color="rgb(30.233765%, 18.035889%, 47.761536%)"
         stop-opacity="1"
         id="stop516" />
      <stop
         offset="0.976562"
         stop-color="rgb(30.046082%, 17.855835%, 47.592163%)"
         stop-opacity="1"
         id="stop517" />
      <stop
         offset="0.980469"
         stop-color="rgb(29.76532%, 17.584229%, 47.338867%)"
         stop-opacity="1"
         id="stop518" />
      <stop
         offset="0.988281"
         stop-color="rgb(29.486084%, 17.314148%, 47.087097%)"
         stop-opacity="1"
         id="stop519" />
      <stop
         offset="0.992188"
         stop-color="rgb(29.205322%, 17.042542%, 46.833801%)"
         stop-opacity="1"
         id="stop520" />
      <stop
         offset="1"
         stop-color="rgb(29.019165%, 16.862488%, 46.665955%)"
         stop-opacity="1"
         id="stop521" />
    </radialGradient>
  </defs>
  <g
     clip-path="url(#clip-6)"
     id="g1312"
     style="display:inline"
     transform="translate(-201.74302,-355.26315)">
    <g
       clip-path="url(#clip-7)"
       id="g1311">
      <g
         clip-path="url(#clip-8)"
         id="g1310">
        <path
           fill-rule="nonzero"
           fill="url(#radial-pattern-2)"
           d="M 197.48047,358.33984 V 1776.9219 H 1619 V 358.33984 Z m 0,0"
           id="path1310"
           style="fill:url(#radial-pattern-2)" />
      </g>
    </g>
  </g>
  <path
     fill-rule="nonzero"
     fill="#ffffff"
     fill-opacity="1"
     d="m 843.69838,1385.9165 c -90.79687,18.6211 -185.24218,18.8398 -278.70312,-0.2383 0.35156,-0.9726 0.71484,-1.9531 1.08203,-2.9297 10.8125,-29.1719 23.76563,-58.5898 37.33985,-89.8828 2.07812,-4.7891 5.26953,-8.75 9.03125,-11.5078 3.78125,-2.8594 8.14453,-4.5508 12.6875,-4.6992 3.33203,-0.062 6.68359,-0.2813 10.01562,-0.3906 l 9.95313,-0.293 c 6.65234,-0.3281 13.24218,-0.2969 19.84765,-0.5586 13.17578,-0.1484 26.28906,-0.5195 39.40235,-0.3594 3.28515,-0.051 6.55859,-0.051 9.84375,-0.02 l 4.92187,0.098 h 4.92188 c 6.57031,0.09 13.14453,0.2032 19.71875,0.3204 l 4.93359,0.1601 4.95703,0.07 c 3.30078,0.07 6.60156,0.1797 9.92188,0.3399 3.30078,0.09 6.61718,0.1406 9.9375,0.2812 3.3164,0.1485 6.66796,0.3399 9.98437,0.3985 4.52734,0.1406 8.89063,1.8593 12.66797,4.7226 3.76565,2.7578 6.94535,6.707 9.02345,11.4883 13.5703,31.3086 26.5195,60.7109 37.3711,89.8711 0.3789,1.0508 0.7773,2.0781 1.1406,3.1289"
     id="path1312" />
  <path
     fill-rule="nonzero"
     fill="#ffffff"
     fill-opacity="1"
     d="m 244.60464,1086.1352 c -20.27344,27.3321 -39.3711,53.3204 -59.21485,77.25 -0.66797,0.8125 -1.33594,1.6016 -2,2.4024 -22.25781,-25.1719 -42.82031,-52.1094 -61.55078,-80.7227 C 88.655422,1034.397 62.557762,980.49855 43.760892,924.54545 c 1.07812,-0.1875 2.16015,-0.3789 3.2539,-0.5703 30.70313,-5.2383 62.804688,-8.8281 96.476558,-12.6992 10.19532,-1.1094 20.21094,2.9414 24.98829,10.6093 1.78125,2.8204 3.47656,5.6602 5.21093,8.5 1.83985,2.7813 3.64844,5.5821 5.41016,8.3711 1.76172,2.8086 3.49609,5.6407 5.17578,8.461 l 2.49219,4.2695 2.66797,4.1797 c 3.52343,5.5898 6.875,11.2422 10.08203,16.9492 3.46094,5.6094 6.875,11.2305 10.0664,16.9609 3.07813,5.8086 6.66797,11.33205 9.84375,17.10155 3.23829,5.75 6.25391,11.6172 9.49219,17.3789 6.36719,11.5899 12.66797,23.2813 18.875,35.1485 4.20703,8.0312 3,18.5117 -3.1914,26.9296"
     id="path1313" />
  <path
     fill-rule="nonzero"
     fill="#ffffff"
     fill-opacity="1"
     d="m 247.24135,349.14701 c -12.33593,23.69921 -24.86328,46.66015 -37.99218,69.37109 -1.69532,2.79687 -3.28516,5.6875 -4.92188,8.50781 l -5.01562,8.48047 c -3.22266,5.71875 -6.77735,11.26172 -10.08203,16.96094 -6.90625,11.21875 -13.6836,22.57031 -20.9375,33.82812 -2.36719,3.8711 -6.00391,6.8125 -10.35157,8.67188 -4.38281,1.83984 -9.30468,2.66015 -14.51172,2.07812 -16.89062,-1.91015 -33.38671,-3.75 -49.499998,-5.75 -16.01953,-1.98828 -31.6875,-4.1289 -47.00781,-6.71875 -1.0664,-0.16797 -2.1289,-0.35937 -3.17578,-0.53125 29.70313,-89.79687 76.949218,-171.61718 139.054688,-241.51953 0.68359,0.82031 1.38281,1.65235 2.0664,2.47266 19.78125,23.91015 39.00391,50.02734 59.16797,77.26953 6.17578,8.39844 7.50782,18.9375 3.20703,26.87891"
     id="path1314" />
  <path
     fill-rule="nonzero"
     fill="#ffffff"
     fill-opacity="1"
     d="m 842.86638,22.178257 c -0.3399,0.96875 -0.6875,1.95703 -1.0586,2.91796 -5.4024,14.60938 -11.3516,29.30079 -17.6406,44.19922 -6.2813,14.91016 -12.8985,30.04297 -19.6993,45.730473 -4.2109,9.60156 -12.65231,15.76172 -21.73434,16.22266 -26.73437,0.98828 -52.99219,1.71875 -79.21875,1.58984 -13.11328,0.10938 -26.22656,-0.22265 -39.39062,-0.40234 -6.58594,-0.25 -13.17578,-0.23828 -19.8125,-0.57031 l -9.9375,-0.30079 c -3.31641,-0.10937 -6.65235,-0.32812 -9.98438,-0.39843 -4.52734,-0.14063 -8.89062,-1.85938 -12.67187,-4.69922 -3.7461,-2.76172 -6.92188,-6.71094 -9,-11.49219 C 589.1437,83.666537 576.17495,54.268097 565.3312,25.096217 c -0.39844,-1.03906 -0.77735,-2.08984 -1.14453,-3.14062 90.77734,-18.6171899 185.22265,-18.8398399 278.67971,0.22266"
     id="path1315" />
  <path
     fill-rule="nonzero"
     fill="#ffffff"
     fill-opacity="1"
     d="m 1364.1359,483.34622 c -1.0586,0.19141 -2.1406,0.35938 -3.2187,0.55079 -30.6914,5.26171 -62.6094,8.76171 -96.5118,12.71875 -5.1679,0.60156 -10.1875,-0.17969 -14.457,-2.02735 -4.3711,-1.85156 -8.043,-4.77344 -10.4297,-8.61328 -1.7226,-2.83984 -3.5898,-5.61719 -5.3515,-8.44922 l -5.2383,-8.4375 c -3.6211,-5.57031 -6.8906,-11.29297 -10.4336,-16.86328 -3.3789,-5.63672 -6.7695,-11.28906 -10.1602,-16.92969 l -2.457,-4.25 -2.5625,-4.25 c -1.6992,-2.84765 -3.3281,-5.71875 -4.9492,-8.58984 l -9.7696,-17.11719 -4.8085,-8.60156 c -1.5704,-2.89063 -3.3321,-5.67188 -4.9297,-8.55859 -3.2735,-5.73047 -6.4219,-11.57032 -9.4219,-17.54297 l -1.1289,-2.23828 -1.2227,-2.16016 -2.4297,-4.35156 c -1.5976,-2.89844 -3.1679,-5.85938 -4.707,-8.82813 -2.082,-4.03906 -2.7617,-8.71094 -2.1328,-13.4414 0.5117,-4.64063 2.293,-9.32032 5.3828,-13.50782 20.1797,-27.26172 39.3399,-53.30078 59.2305,-77.26953 0.6992,-0.83984 1.3867,-1.67187 2.0781,-2.49219 22.25,25.16016 42.8203,52.10157 61.5586,80.71094 33.1797,50.66797 59.2812,104.58985 78.0703,160.53906"
     id="path1316" />
  <path
     fill-rule="nonzero"
     fill="#ffffff"
     fill-opacity="1"
     d="m 1364.1359,923.83845 c -29.6992,89.78895 -76.9492,171.62885 -139.0508,241.52725 -0.7187,-0.8398 -1.4179,-1.6797 -2.1172,-2.5195 -19.8593,-23.9688 -38.8007,-49.8711 -59.1523,-77.2813 -3.1094,-4.1992 -4.9492,-8.9297 -5.457,-13.5586 -0.543,-4.6679 0.1093,-9.3398 2.25,-13.3203 12.4765,-23.5781 24.8789,-46.6797 38.0586,-69.32805 1.6992,-2.8008 3.2187,-5.6992 4.8906,-8.5117 1.6211,-2.8594 3.4101,-5.6094 5,-8.4805 3.25,-5.6797 6.7773,-11.2578 10.0781,-16.9375 6.9219,-11.2226 13.6992,-22.5703 20.9609,-33.832 4.7383,-7.7188 14.5704,-11.8594 24.8594,-10.75 16.8906,1.9101 33.3906,3.7304 49.5,5.75 16.0313,1.9804 31.6914,4.1289 47.0196,6.6992 1.0507,0.1719 2.1093,0.3633 3.1601,0.543"
     id="path1317" />
  <path
     fill-rule="nonzero"
     fill="#ffffff"
     fill-opacity="1"
     d="m 633.90151,261.08841 c -6.55078,0 -12.30078,-4.78125 -13.32422,-11.46094 -1.125,-7.37109 3.9375,-14.25 11.30078,-15.3789 23.60938,-3.61328 47.70703,-5.44141 71.63672,-5.44141 21.17578,0 42.56641,1.44141 63.57813,4.26953 7.38672,0.98828 12.5664,7.78125 11.57422,15.17188 -0.9961,7.38672 -7.78907,12.5664 -15.17579,11.5664 -19.82031,-2.65625 -40.0039,-4.01953 -59.97656,-4.01953 -22.57031,0 -45.29687,1.73047 -67.55859,5.13282 -0.69141,0.10937 -1.37891,0.16015 -2.05469,0.16015 z m 369.00389,104.50781 c -3.09762,0 -6.19922,-1.05078 -8.73822,-3.21093 -32.5,-27.63672 -68.8204,-50.46875 -107.9414,-67.83985 -6.8086,-3.02734 -9.879,-11 -6.8594,-17.80859 3.0312,-6.80859 11,-9.87891 17.8125,-6.85938 41.4883,18.42969 80,42.62891 114.46872,71.94922 5.6797,4.83203 6.3711,13.33985 1.5391,19.01953 -2.668,3.14063 -6.4609,4.75 -10.2813,4.75 z m -604.52733,5.80079 c -3.74218,0 -7.46484,-1.53907 -10.1289,-4.57032 -4.92969,-5.58984 -4.38672,-14.12109 1.20703,-19.05078 16.95703,-14.92969 35.21094,-28.82812 54.25781,-41.30078 18.80078,-12.30859 38.57813,-23.36719 58.78516,-32.84766 6.74218,-3.17187 14.78125,-0.26953 17.94922,6.46875 3.16796,6.75 0.26953,14.78907 -6.47657,17.94922 -19.0625,8.96094 -37.72656,19.39063 -55.47656,31.01172 -17.97266,11.76953 -35.20312,24.87891 -51.20312,38.98047 -2.5625,2.25781 -5.7461,3.35938 -8.91407,3.35938 z m 747.42973,212.1914 c -5.7891,0 -11.1406,-3.75 -12.9102,-9.58203 -12.3515,-40.71094 -30.539,-79.57031 -54.0703,-115.51953 l -0.3008,-0.44922 c -4.0976,-6.23047 -2.3593,-14.60156 3.8711,-18.69141 6.2188,-4.08984 14.5899,-2.35937 18.6797,3.8711 l 0.3399,0.50781 c 24.9296,38.07031 44.2109,79.28125 57.3086,122.45313 2.1601,7.1289 -1.8594,14.66015 -8.9883,16.82812 -1.3086,0.39063 -2.6289,0.58203 -3.9297,0.58203 z m -885.92582,7.88672 c -1.21875,0 -2.45313,-0.16016 -3.68359,-0.50781 -7.17188,-2.03125 -11.33985,-9.49219 -9.3086,-16.66016 12.3711,-43.67969 30.85156,-85.25 54.92578,-123.53906 3.96485,-6.3125 12.29688,-8.21094 18.60938,-4.24219 6.30859,3.96094 8.20703,12.28906 4.23828,18.60156 -22.70703,36.1211 -40.13672,75.32032 -51.80469,116.53125 -1.68359,5.9375 -7.09375,9.81641 -12.97656,9.81641 z m 888.05472,252.19142 c -1.2188,0 -2.4609,-0.168 -3.6914,-0.5195 -7.168,-2.0313 -11.3281,-9.5 -9.2969,-16.6719 11.3672,-40.0391 17.1289,-81.4102 17.1289,-122.9688 0,-1.1484 0,-2.289 -0.012,-3.4297 -0.059,-7.4492 5.9297,-13.539 13.3906,-13.5898 0.031,-0.012 0.07,-0.012 0.1094,-0.012 7.4023,0 13.4297,5.9805 13.4922,13.3906 0.01,1.2227 0.01,2.4297 0.01,3.6524 0,44.039 -6.1094,87.8984 -18.1484,130.3281 -1.6914,5.9414 -7.1016,9.8203 -12.9805,9.8203 z m -885.7891,7.8789 c -5.78515,0 -11.13671,-3.75 -12.90625,-9.5703 -13.16796,-43.2969 -20.03125,-88.2774 -20.40625,-133.6797 -0.0625,-7.457 5.92969,-13.5469 13.38282,-13.6094 0.0351,0 0.0742,0 0.11328,0 7.39844,0 13.42969,5.9727 13.48828,13.3789 0.35547,42.8203 6.82812,85.2305 19.24219,126.0625 2.16797,7.1289 -1.85157,14.668 -8.98438,16.8399 -1.30859,0.3984 -2.6289,0.5781 -3.92969,0.5781 z m 747.1602,212.10155 c -3.75,0 -7.4727,-1.5508 -10.14062,-4.5821 -4.9219,-5.5898 -4.3789,-14.1172 1.21872,-19.039 32.1094,-28.25 59.9297,-60.89845 82.6914,-97.05075 3.9688,-6.3086 12.3008,-8.1992 18.6094,-4.2266 6.3008,3.9688 8.1992,12.2969 4.2187,18.6094 -24.1367,38.3398 -53.6367,72.96865 -87.6992,102.92965 -2.5586,2.25 -5.7383,3.3594 -8.8984,3.3594 z m -604.55082,5.4296 c -3.09375,0 -6.20313,-1.0507 -8.74219,-3.2187 -34.34375,-29.2422 -64.41015,-63.3711 -89.37109,-101.44915 -4.08985,-6.2305 -2.34766,-14.5938 3.88672,-18.6836 6.23047,-4.0899 14.59375,-2.3477 18.68359,3.8906 23.55078,35.9219 51.91406,68.12105 84.29688,95.69135 5.67578,4.8399 6.35546,13.3516 1.52734,19.0313 -2.67188,3.1289 -6.46484,4.7382 -10.28125,4.7382 z m 368.91406,104.75 c -6.55469,0 -12.30859,-4.789 -13.32422,-11.4687 -1.12109,-7.3711 3.94141,-14.25 11.3086,-15.3711 42.23046,-6.4297 83.28126,-18.8906 122.01176,-37.0508 6.75,-3.1601 14.7812,-0.2578 17.9492,6.4922 3.1601,6.75 0.25,14.7774 -6.4883,17.9492 -41.082,19.25 -84.6094,32.4805 -129.41016,39.2891 -0.6875,0.1094 -1.3711,0.1601 -2.04688,0.1601 z m -131.34375,1.0586 c -0.60156,0 -1.21094,-0.039 -1.82422,-0.1171 -44.9375,-6.0821 -88.69531,-18.4922 -130.0625,-36.8907 -6.8125,-3.0312 -9.875,-11.0117 -6.84765,-17.8203 3.03125,-6.8086 11.00781,-9.8711 17.8164,-6.8398 39.02735,17.3593 80.3125,29.0703 122.71094,34.8008 7.38281,1 12.5625,7.789 11.56641,15.1796 -0.91797,6.7696 -6.70703,11.6875 -13.35938,11.6875"
     id="path1318" />
  <path
     fill="none"
     stroke-width="15.8759"
     stroke-linecap="butt"
     stroke-linejoin="miter"
     stroke="#4a2b77"
     stroke-opacity="1"
     stroke-miterlimit="10"
     d="m 1385.0461,846.05715 c -5.5274,26.5 -12.5078,52.461 -20.9102,77.7813 -29.6992,89.78895 -76.9492,171.62885 -139.0586,241.52725 -40.5586,45.6914 -87.4922,86.293 -140.0117,120.6797 -74.7188,48.9219 -156.44922,82.4531 -241.36722,99.8711 -90.79687,18.6211 -185.24218,18.8398 -278.70312,-0.2383 -1.05078,-0.2031 -2.11328,-0.4101 -3.16016,-0.6328 -148.47265,-30.9805 -279.84375,-107.6289 -378.44921,-219.2578 -22.25782,-25.1719 -42.81641,-52.1094 -61.55078,-80.7227 C 88.655422,1034.397 62.553862,980.49855 43.756982,924.54545 4.8780722,808.85795 -2.7586378,684.45565 22.835112,561.81495 c 5.52343,-26.5 12.50781,-52.4492 20.90625,-77.7695 29.70312,-89.7969 76.949208,-171.6172 139.058588,-241.5195 40.5625,-45.711 87.50781,-86.3086 140.02344,-120.6875 74.72656,-48.929703 156.4414,-82.461003 241.35937,-99.882903 90.78125,-18.6170999 185.22656,-18.8397999 278.68362,0.2227 1.0703,0.207 2.1289,0.4297 3.1914,0.6484 148.4687,30.9805 279.82812,107.609403 378.44922,219.269603 22.2383,25.1601 42.8203,52.1015 61.5508,80.7109 33.1797,50.668 59.2773,104.5899 78.0781,160.5391 38.8828,115.6797 46.5,240.0898 20.9102,362.7109 z m 0,0"
     id="path1319" />
  <path
     fill-rule="nonzero"
     fill="#ffffff"
     fill-opacity="1"
     d="m 1282.8586,742.58845 c -21.3125,0 -38.6407,-17.3399 -38.6407,-38.6524 0,-21.3086 17.3282,-38.6484 38.6407,-38.6484 21.3203,0 38.6484,17.3398 38.6484,38.6484 0,21.3125 -17.3281,38.6524 -38.6484,38.6524"
     id="path1320" />
  <path
     fill-rule="nonzero"
     fill="#ffffff"
     fill-opacity="1"
     d="m 125.0226,742.58845 c -21.30859,0 -38.648428,-17.3399 -38.648428,-38.6524 0,-21.3086 17.339838,-38.6484 38.648428,-38.6484 21.3086,0 38.64844,17.3398 38.64844,38.6484 0,21.3125 -17.33984,38.6524 -38.64844,38.6524"
     id="path1321" />
  <path
     fill-rule="nonzero"
     fill="#ffffff"
     fill-opacity="1"
     d="m 406.1437,1255.0766 c -21.3086,0 -38.64453,-17.3398 -38.64453,-38.6484 0,-21.3125 17.33593,-38.6523 38.64453,-38.6523 21.3125,0 38.64844,17.3398 38.64844,38.6523 0,21.3086 -17.33594,38.6484 -38.64844,38.6484"
     id="path1322" />
  <path
     fill-rule="nonzero"
     fill="#ffffff"
     fill-opacity="1"
     d="m 406.1437,230.09622 c -21.3086,0 -38.64453,-17.33984 -38.64453,-38.64843 0,-21.3125 17.33593,-38.65235 38.64453,-38.65235 21.3125,0 38.64844,17.33985 38.64844,38.65235 0,21.30859 -17.33594,38.64843 -38.64844,38.64843"
     id="path1323" />
  <path
     fill-rule="nonzero"
     fill="#ffffff"
     fill-opacity="1"
     d="m 1001.7375,1255.0766 c -21.30862,0 -38.64072,-17.3398 -38.64072,-38.6484 0,-21.3125 17.3321,-38.6523 38.64072,-38.6523 21.3086,0 38.6484,17.3398 38.6484,38.6523 0,21.3086 -17.3398,38.6484 -38.6484,38.6484"
     id="path1324" />
  <path
     fill-rule="nonzero"
     fill="#ffffff"
     fill-opacity="1"
     d="m 1001.7375,230.09622 c -21.30862,0 -38.64072,-17.33984 -38.64072,-38.64843 0,-21.3125 17.3321,-38.65235 38.64072,-38.65235 21.3086,0 38.6484,17.33985 38.6484,38.65235 0,21.30859 -17.3398,38.64843 -38.6484,38.64843"
     id="path1325" />
  <path
     fill-rule="nonzero"
     fill="#ffffff"
     fill-opacity="1"
     d="M 1037.3351,485.64701 C 1157.8976,669.77595 1106.3586,916.77595 922.22578,1037.3384 738.09682,1157.8852 491.10073,1106.3579 370.54214,922.22515 249.98745,738.09625 301.52651,491.09622 485.65542,370.53763 669.78823,249.98685 916.78828,301.5181 1037.3351,485.64701"
     id="path1326" />
  <path
     fill-rule="nonzero"
     fill="#4a2b77"
     fill-opacity="1"
     d="m 1038.5461,721.88525 -5.4102,-5.5586 c -8.2695,-8.539 -17.3203,-16.4296 -26.1172,-23.6601 -0.1328,-0.1094 -0.1406,-0.2813 -0.031,-0.3906 4.1484,-3.918 8.3086,-8.0078 12.4492,-12.2578 l 3.1016,-3.211 2.9492,-3.2695 c 1.9687,-2.1992 3.9297,-4.4414 5.8906,-6.711 l 5.0195,-5.9414 c 3.211,-3.9179 7.5977,-6.3672 12.3711,-7.0586 4.7188,-0.6796 9.8399,0.4297 13.9297,3.6993 4.0274,3.2695 6.3867,8.0703 6.9102,13.039 0.3086,2.4805 -0.051,5.0235 -0.8125,7.4336 -0.7774,2.3985 -2.0196,4.668 -3.7383,6.6367 l -2.4297,2.75 c -0.3594,0.4102 0.1289,1.0235 0.5977,0.7618 4.7695,-2.7383 9.6601,-5.1797 14.2421,-9.7188 0.1993,-0.2031 0.4688,-0.1211 0.4883,0.1367 l 0.6524,11.3633 c 0.098,3.7891 0.098,7.5781 0.1484,11.3672 0,0.2617 -0.2617,0.3516 -0.4687,0.1719 -4.8907,-4.1992 -9.9297,-6.2891 -14.8711,-8.6797 -0.4883,-0.2305 -0.9297,0.418 -0.5508,0.8008 l 2.6094,2.5703 c 3.6718,3.6797 5.6328,8.707 5.5507,13.707 -0.1797,4.9922 -2.2109,9.9492 -6.0078,13.4922 -1.8828,1.7773 -4.082,3.0391 -6.4336,3.8008 -2.3281,0.7695 -4.7578,1.0469 -7.1562,0.8789 -2.3906,-0.1719 -4.7422,-0.7891 -6.9219,-1.8203 -2.1484,-1.0391 -4.1797,-2.4922 -5.9609,-4.3321"
     id="path1327" />
  <path
     fill-rule="nonzero"
     fill="#4a2b77"
     fill-opacity="1"
     d="m 1066.0578,804.28765 c -2.1914,-3.6524 -4.2422,-7.1797 -6.6094,-10.7305 -2.3203,-3.5312 -4.6601,-7 -7.0117,-10.3906 -2.3906,-3.3984 -4.6602,-6.7109 -7.1914,-9.9883 -2.5078,-3.293 -5.0391,-6.5 -7.5781,-9.6406 -0.07,-0.1016 -0.211,-0.1211 -0.3204,-0.062 -3.5,2.0625 -6.9804,4.043 -10.4414,5.9531 -3.4492,1.918 -7.1289,3.7188 -10.6601,5.4805 -3.5469,1.75 -7.0899,3.4297 -10.6094,5.039 -3.4687,1.6289 -7.21872,3.0977 -10.77732,4.5586 -0.1328,0.051 -0.1719,0.1914 -0.09,0.3008 4.6172,6.1797 9.23832,12.6602 13.35942,19.2813 4.207,6.6484 8.457,13.6172 12.1602,20.6875 0.058,0.1015 0.1875,0.1601 0.3085,0.1093 7.75,-2.6875 15.1602,-5.8203 22.7813,-9.1679 7.6992,-3.3321 15.0703,-7.0586 22.5703,-11.0508 0.1367,-0.07 0.1875,-0.25 0.1094,-0.3789"
     id="path1328" />
  <path
     fill-rule="nonzero"
     fill="#4a2b77"
     fill-opacity="1"
     d="m 1033.0773,622.36576 c 1.5391,-2.48047 3.0703,-4.98829 4.6016,-7.53907 1.75,-2.98047 3.5976,-6.03125 5.25,-9.08984 1.6367,-3.05859 3.2578,-6.16016 4.8672,-9.30859 1.6093,-3.16016 3.1992,-6.36329 4.7695,-9.6211 1.582,-3.25 2.9297,-6.49219 4.3828,-9.80859 0.07,-0.15235 0,-0.33985 -0.1523,-0.42188 -3.2383,-1.6289 -6.461,-3.21875 -9.668,-4.75 l -4.8008,-2.26953 -4.9414,-2.12109 c -6.5781,-2.76953 -13,-5.39063 -19.5,-7.73828 -2.8203,-0.98047 -5.6406,-1.92188 -8.4297,-2.83203 -5.4609,-1.78907 -11.14062,-1.07032 -15.96872,1.37109 -2.4297,1.21875 -4.6602,2.87891 -6.5391,4.87109 -1.8516,1.95703 -3.3828,4.23828 -4.4414,6.73828 -1.0586,2.53125 -1.5586,5.05079 -1.5312,7.44922 -0.039,2.44141 0.3593,4.80078 1.2812,6.92969 1.8203,4.28125 5.6289,7.73047 10.6406,9.70313 2.5313,0.94921 5.0703,1.9375 7.62112,2.95703 0.1485,0.0625 0.2071,0.21093 0.1289,0.35156 -1.28902,2.41016 -2.58982,4.78125 -3.91012,7.12109 -2.8321,4.78907 -3.4297,9.82032 -2.0313,14.25 0.75,2.19922 1.7227,4.33985 3.3008,6.1875 1.5391,1.8711 3.55862,3.48047 6.01952,4.74219 2.4493,1.25 5.1016,2.01953 7.7891,2.34766 7.9805,1.02343 16.7812,-2.23828 21.2617,-9.51953"
     id="path1329" />
  <path
     fill-rule="nonzero"
     fill="#4a2b77"
     fill-opacity="1"
     d="m 976.04608,922.13525 c -3.5078,-2.9101 -5.5977,-6.957 -6.2188,-11.0898 -0.3008,-2.0586 -0.2422,-4.1484 0.2305,-6.1484 0.2187,-1.0118 0.5781,-1.9688 0.9805,-2.9297 0.3984,-0.9805 0.8906,-1.9102 1.5,-2.8086 1.1601,-1.7227 2.6171,-3.1328 4.2773,-4.2227 0.2109,-0.1406 0.051,-0.4609 -0.207,-0.3984 -4.543,1.0976 -9.5508,0.1797 -13.7735,-2.832 -3.8086,-2.6993 -6.2968,-6.5782 -7.3164,-10.5391 -0.5117,-1.9883 -0.6523,-4 -0.3711,-5.918 0.1289,-0.9609 0.3789,-1.8906 0.711,-2.8125 0.2968,-0.9375 0.707,-1.8398 1.2265,-2.6875 2.1328,-3.4804 5.711,-5.5898 9.8203,-6.2929 4.0821,-0.7071 8.5508,-0.09 12.6602,2.3203 2.2695,1.3398 4.1602,3.0703 5.582,5.0703 1.4297,2.0117 2.3907,4.2695 2.7383,6.5703 0.043,0.25 0.4102,0.2695 0.4609,0.02 0.3985,-1.9101 1.0313,-3.8476 2.1016,-5.6406 2.207,-3.6875 5.7969,-6.1289 9.88672,-7.1875 4.0703,-1.0703 8.5,-0.832 12.5938,1.2383 4.2187,2.1406 7.2578,5.8594 8.4687,10.1211 1.1797,4.2304 0.6602,9.0703 -1.7812,13.3476 -0.6992,1.211 -1.5,2.3125 -2.4102,3.2813 -0.9492,0.9492 -1.9804,1.7812 -3.0781,2.4687 -2.1992,1.4024 -4.6406,2.2617 -7.1328,2.5625 -0.4688,0.051 -0.5586,0.6992 -0.1172,0.8594 4.0586,1.5313 8.457,2.2188 12.9883,1.9102 1.039,-0.07 2.1094,-0.1914 3.2109,-0.3711 0.25,-0.039 0.4102,0.1601 0.2813,0.3593 -3.793,5.8633 -7.3516,11.8711 -11.4922,17.5 -0.1406,0.1914 -0.3789,0.1211 -0.4492,-0.1289 -0.2618,-1.0586 -0.5704,-2.0781 -0.9102,-3.0586 -1.4883,-4.25 -3.8086,-7.9609 -6.8789,-11.1093 -0.332,-0.3321 -0.8711,0.02 -0.7305,0.4687 1.4102,4.7695 0.5703,10.2695 -2.6601,14.8281 -2.78132,4.0899 -7.21102,6.3321 -11.58992,6.9297 -4.4101,0.5703 -8.9414,-0.6484 -12.6015,-3.6797"
     id="path1330" />
  <path
     fill-rule="nonzero"
     fill="#4a2b77"
     fill-opacity="1"
     d="m 790.00698,1027.3579 3.64844,-6.75 c 2.73828,-5.3594 5.28126,-10.8125 7.69136,-16.1328 1.1914,-2.6992 2.3789,-5.25775 3.461,-8.02735 1.0898,-2.7421 2.1484,-5.4609 3.1601,-8.1718 0.059,-0.1602 0.2188,-0.2188 0.3594,-0.1407 10.1602,5.793 20.6602,10.6329 31.8399,15.42965 2.3593,0.961 4.7304,1.8711 7.1406,2.793 9.3789,3.5703 15,14.0391 11.3594,23.9492 -0.9102,2.461 -2.2696,4.711 -4.0391,6.4883 -1.7813,1.7617 -3.8906,3.1602 -6.1914,4.1406 -4.6211,1.9297 -9.8789,2.3321 -14.7578,0.1211 l -3.3906,-1.5 c -0.5,-0.2187 -0.9415,0.418 -0.543,0.7891 4.082,3.6992 7.9922,7.7304 13.7031,10.6094 0.25,0.121 0.2578,0.4023 0.02,0.5 -3.5,1.4531 -7.1015,2.6718 -10.6523,4.0117 l -5.3398,1.9687 c -1.7774,0.6719 -3.5586,1.3008 -5.379,1.8399 -0.25,0.082 -0.4179,-0.1407 -0.3086,-0.3985 0.6172,-1.4687 1.1172,-2.9023 1.5196,-4.3203 0.3984,-1.4492 0.6992,-2.8789 0.9375,-4.289 0.5,-2.8125 0.7812,-5.5625 1.1406,-8.3125 0.07,-0.5391 -0.6875,-0.75 -0.918,-0.25 l -1.6211,3.3398 c -0.5781,1.1797 -1.2695,2.3008 -2.0703,3.3008 -0.8008,0.9687 -1.6992,1.8515 -2.6797,2.6406 -1.9492,1.5703 -4.1992,2.75 -6.5898,3.5 -2.3906,0.7383 -4.9102,1.0586 -7.3984,0.8516 -2.5235,-0.293 -5,-1.0625 -7.29691,-2.3633 -9.17188,-5.1797 -11.64844,-16.7969 -6.80469,-25.6172"
     id="path1331" />
  <path
     fill-rule="nonzero"
     fill="#4a2b77"
     fill-opacity="1"
     d="m 720.10854,1079.0454 c 2.79688,-3.2305 5.52344,-6.457 8.17578,-9.6797 2.65235,-3.2578 5.24219,-6.3672 7.73828,-9.7773 4.9961,-6.7305 9.72266,-13.293 14.12891,-20.0821 0.0664,-0.1093 0.0469,-0.25 -0.043,-0.3281 -6.0625,-5.3516 -11.87109,-11.0195 -17.375,-16.5625 -2.74609,-2.7187 -5.44922,-5.75 -8.07031,-8.6406 -2.62109,-2.918 -5.16797,-5.8399 -7.64453,-8.7578 -0.0898,-0.1094 -0.23828,-0.1016 -0.31641,0.02 -2.22265,3.2617 -4.52734,6.25 -6.89844,9.3594 -2.37109,3.082 -4.8164,6.1719 -7.33203,9.2617 -2.51562,3.1484 -5.10156,6.0703 -7.75781,9.0391 -2.65625,2.9609 -5.38672,5.9296 -8.18359,8.8789 -0.0859,0.1015 -0.0937,0.2422 -0.0195,0.3398 2.48046,3.1602 5.03125,6.3203 7.65625,9.4922 2.62109,3.168 5.3164,6.3789 8.08203,9.3672 2.76953,3.043 5.60937,6.082 8.51953,9.1133 2.91015,3.0078 5.89844,6.1367 8.94531,8.9765 0.10938,0.1016 0.29297,0.094 0.39453,-0.019"
     id="path1332" />
  <path
     fill-rule="nonzero"
     fill="#4a2b77"
     fill-opacity="1"
     d="m 882.90538,991.27595 c 2.8399,0.7226 5.7227,1.4218 8.6329,2.1093 6.789,1.5625 13.5585,2.7305 20.5976,3.9297 7.082,1.25 14.0625,2 21.2695,2.72265 0.1719,0.02 0.3321,-0.10155 0.3516,-0.26945 0.5703,-3.5625 1.1016,-7.1016 1.5898,-10.6016 0.4415,-3.5586 0.7891,-7.1484 1.129,-10.6797 0.332,-3.5312 0.621,-7.0312 0.871,-10.5 0.1211,-1.7383 0.25,-3.4492 0.3321,-5.1914 l 0.1679,-5.2578 c 0.082,-2.9805 0.1211,-5.9297 0.1485,-8.8594 0.043,-5.7226 -2.3672,-10.8828 -6.168,-14.7422 -1.9219,-1.9375 -4.1797,-3.5508 -6.6484,-4.7304 -2.4414,-1.1797 -5.0938,-1.9375 -7.8125,-2.1875 -10.8594,-0.8594 -19.2578,6.25 -19.711,17.3085 -0.1367,2.6915 -0.3203,5.3907 -0.5195,8.129 -0.01,0.1523 -0.1406,0.25 -0.2891,0.2304 -2.6992,-0.5078 -5.371,-1.0273 -8.0195,-1.5703 -1.332,-0.2773 -2.6406,-0.4101 -3.8984,-0.4101 -1.293,-0.039 -2.5508,0.043 -3.7617,0.25 -2.4219,0.4101 -4.6289,1.3007 -6.5391,2.6328 -1.9297,1.3086 -3.5117,3.1367 -4.8203,5.1601 -1.3203,2.0196 -2.25,4.418 -2.6992,7.1289 -0.4532,2.6875 -0.3828,5.4297 0.1289,8.0782 1.5703,8.0312 7.3008,15.2031 15.6679,17.3203"
     id="path1333" />
  <path
     fill-rule="nonzero"
     fill="#4a2b77"
     fill-opacity="1"
     d="m 580.28042,1029.7173 c 1.67578,-4.25 4.85547,-7.4414 8.57812,-9.2696 3.76953,-1.9218 8.07813,-2.4921 12.17969,-1.1992 1.99609,0.5899 3.74219,1.6797 5.3125,2.8399 0.19922,0.1484 0.46484,-0.1133 0.32812,-0.3203 -2.47656,-3.9297 -3.09765,-9.1329 -1.55859,-14.0508 1.40234,-4.461 4.29297,-7.96875 7.73828,-10.12105 3.48438,-2.2578 7.51953,-3.168 11.39063,-2.1289 3.92187,1.1406 7.08593,3.6914 9.03515,7.33975 1.94532,3.6211 2.70703,8.1992 1.69141,12.8281 -1.13281,5.1407 -4.30469,9.2422 -8.5,11.461 -0.22656,0.1211 -0.12891,0.4687 0.12109,0.4414 1.96094,-0.2891 3.98828,-0.211 6.00782,0.3086 4.14453,1.1601 7.625,3.582 9.90234,7.1211 2.27344,3.5 3.38672,7.9179 2.67969,12.4297 -0.73438,4.6914 -3.31641,8.6015 -7,11.1015 -3.66797,2.4571 -8.47266,3.6875 -13.25,2.4883 -5.44532,-1.2812 -9.72657,-4.8008 -11.81641,-9.3594 -0.19141,-0.4297 -0.83203,-0.332 -0.85547,0.1407 -0.20703,4.3906 0.50391,8.75 2.20703,12.8984 0.39063,0.9609 0.83203,1.9219 1.34375,2.8984 0.1211,0.2227 -0.0195,0.4414 -0.2539,0.3828 l -5.08594,-1.1992 c -1.69141,-0.4219 -3.35938,-0.9336 -5.03906,-1.4023 l -10.05469,-2.8594 c -0.23047,-0.07 -0.24219,-0.3203 -0.0234,-0.4609 0.9375,-0.5899 1.8125,-1.2188 2.64063,-1.8477 3.58593,-2.7812 6.42578,-6.2226 8.45703,-10.0625 0.21484,-0.4101 -0.28125,-0.8281 -0.66406,-0.5703 -4.09766,2.832 -9.67579,4.0312 -14.94532,2.1523 -4.67187,-1.5703 -8.26953,-4.832 -10.19531,-8.7695 -1.89453,-4.0625 -2.11719,-8.8008 -0.37109,-13.2109"
     id="path1334" />
  <path
     fill-rule="nonzero"
     fill="#4a2b77"
     fill-opacity="1"
     d="m 422.72573,885.33845 c 2.48047,0.5195 5.07031,0.9297 7.625,1.3281 5.97656,0.9297 11.85937,1.7305 17.64453,2.4101 5.83594,0.6407 11.77734,0.9883 17.50391,1.3086 0.16015,0.012 0.26953,0.1407 0.23437,0.3125 -0.5625,2.8282 -1.15234,5.75 -1.6289,8.6172 -0.44532,2.8438 -0.86719,5.7227 -1.26563,8.6328 -0.39453,2.9102 -0.76562,5.8477 -1.10937,8.8204 -0.35157,2.9804 -0.67969,5.9882 -0.85938,8.9296 l -0.48437,7.668 c -0.56641,10.0703 -8.80469,18.6328 -19.3125,18.1719 -10.64063,-0.2891 -18.80079,-10.1211 -17.95313,-20.4414 l 0.40234,-3.6992 c 0.0625,-0.5508 -0.67968,-0.7696 -0.91015,-0.2696 -1.15625,2.5196 -2.3711,5.0078 -3.44531,7.668 -1.02735,2.6211 -1.89454,5.4023 -2.38672,8.5625 -0.043,0.2773 -0.30469,0.3789 -0.47266,0.1797 -1.21484,-1.461 -2.48437,-2.8711 -3.65625,-4.3594 l -3.46875,-4.5 -6.92578,-9.0117 c -0.16016,-0.2109 -0.004,-0.4414 0.27734,-0.418 6.47657,0.4883 11.8125,-0.8125 17.24219,-1.8125 0.53516,-0.098 0.50781,-0.8789 -0.0391,-0.9492 l -3.65235,-0.5312 c -2.60156,-0.379 -5.03515,-1.2969 -7.19921,-2.6172 -2.07422,-1.3828 -3.8711,-3.1719 -5.29297,-5.2227 -1.42188,-2.0586 -2.46485,-4.3672 -3.03125,-6.8086 -0.57032,-2.4297 -0.6875,-4.9805 -0.10547,-7.5898 2.18359,-10.3594 12.46484,-16.3203 22.26953,-14.3789"
     id="path1335" />
  <path
     fill-rule="nonzero"
     fill="#4a2b77"
     fill-opacity="1"
     d="m 351.97573,834.89705 c 3.91016,1.6601 7.69141,3.3007 11.64062,4.8007 3.96094,1.4883 7.89844,2.9102 11.8125,4.2696 3.91016,1.3593 7.78907,2.6484 11.65235,3.8711 3.97656,1.1679 7.92187,2.2695 11.83594,3.3086 0.12109,0.031 0.25,-0.031 0.29687,-0.1485 1.60156,-3.7109 3.23438,-7.3633 4.89844,-10.9414 1.77344,-3.6289 3.58984,-7.1992 5.42969,-10.7109 1.83593,-3.5 3.70312,-6.9375 5.59375,-10.3086 1.90234,-3.3711 4.01953,-6.75 6.05468,-10.0195 0.0742,-0.1211 0.0234,-0.2618 -0.10937,-0.3008 -3.6836,-1.1407 -7.39453,-2.3399 -11.13672,-3.6094 -3.78125,-1.2617 -7.29688,-2.6797 -11,-4.1094 -7.29688,-2.9101 -14.85938,-6.0429 -21.99219,-9.5898 -0.11328,-0.062 -0.25,-0.024 -0.32031,0.078 -4.70703,6.7383 -8.83203,13.6211 -13.03516,20.8086 -2.05078,3.5898 -4.23437,7.293 -6.10156,10.9609 -1.91406,3.6914 -3.80078,7.4414 -5.65625,11.2696 -0.0664,0.1328 -0.004,0.3125 0.13672,0.3711"
     id="path1336" />
  <path
     fill-rule="nonzero"
     fill="#4a2b77"
     fill-opacity="1"
     d="m 485.63979,962.64705 c 0.17188,2.9492 0.35547,5.9492 0.67969,8.8281 0.69531,6.8398 1.55469,13.8125 2.58594,20.9023 1.16797,6.8985 2.51562,13.91795 4.03906,21.05075 0.0391,0.1602 0.20312,0.2774 0.36719,0.2578 14.35156,-2.3711 28.10156,-5.3398 41.46484,-9.3086 2.83594,-0.8125 5.64063,-1.6523 8.41016,-2.5117 5.5,-1.8203 9.6914,-5.77725 12.16797,-10.58975 1.25,-2.418 2.07031,-5.0586 2.41796,-7.75 0.33985,-2.668 0.21875,-5.3672 -0.41015,-8 -1.19141,-5.4375 -4.1836,-9.5274 -8.23047,-11.8203 -4.00781,-2.3477 -8.92969,-3.1875 -14.27344,-1.6407 -2.625,0.7422 -5.32031,1.5235 -7.93359,2.1211 -0.15235,0.039 -0.28906,-0.059 -0.3086,-0.2187 -0.33984,-2.7422 -0.65234,-5.4688 -0.93359,-8.1719 -0.28906,-2.7305 -1.07031,-5.1797 -2.25391,-7.2773 -1.21093,-2.0625 -2.65234,-4 -4.5,-5.4102 -3.625,-2.9023 -8.67187,-4.0117 -14,-3.3203 -2.67968,0.3906 -5.2539,1.289 -7.60937,2.5898 -7.13281,3.9375 -12.20313,11.5977 -11.67969,20.2696"
     id="path1337" />
  <path
     fill-rule="nonzero"
     fill="#4a2b77"
     fill-opacity="1"
     d="m 355.63979,686.61575 c 4.55078,0.293 8.625,2.3399 11.53906,5.3203 2.94532,2.9922 4.58204,6.9102 4.80079,11.211 0.0664,2.0781 -0.29297,4.0781 -1,5.9296 -0.0899,0.2383 0.23437,0.4102 0.40234,0.211 3.04297,-3.5625 7.64453,-5.75 12.82422,-5.8008 4.66797,-0.039 8.95703,1.6289 12.10547,4.25 3.17187,2.6211 5.04687,6.1797 5.4375,10.1719 0.30859,4.0664 -1.36328,7.8789 -4.28907,10.8594 -2.80859,2.957 -6.86718,5.0898 -11.58984,5.5468 -5.21094,0.5 -10.23437,-1.2383 -13.58984,-4.5468 -0.17578,-0.1797 -0.48828,0.019 -0.38282,0.25 0.80469,1.789 1.47657,3.7304 1.62891,5.7968 0.36719,4.293 -1.12109,8.3711 -3.81641,11.6328 -2.58984,3.2383 -6.39062,5.6485 -10.89843,6.3672 -4.6875,0.75 -9.26172,-0.4883 -12.82032,-3.2187 -3.43359,-2.7305 -5.83984,-6.961 -6.35546,-11.8594 -0.69532,-5.5508 1.68359,-10.7383 5.33593,-14.1289 0.34375,-0.3203 0.0391,-0.8906 -0.41015,-0.7695 -4.19141,1.1484 -8.16016,3.1679 -11.65235,6.0781 -0.80468,0.6601 -1.60156,1.3906 -2.38672,2.1719 -0.18359,0.1875 -0.42578,0.1172 -0.4414,-0.1211 l -0.60938,-10.4414 -0.28125,-5.2305 -0.0586,-5.2305 c -0.004,-0.2383 0.23437,-0.3281 0.42969,-0.1562 0.83984,0.707 1.68359,1.3476 2.53125,1.9375 3.66406,2.5625 7.79687,4.2109 12.125,4.9609 0.45703,0.078 0.69531,-0.5312 0.3164,-0.8086 -4.01172,-3.0312 -6.49609,-7.9726 -6.5625,-13.5703 -0.13281,-4.9297 2.08203,-9.3516 5.30469,-12.3906 3.24219,-3.0508 7.62109,-4.7305 12.36328,-4.4219"
     id="path1338" />
  <path
     fill-rule="nonzero"
     fill="#4a2b77"
     fill-opacity="1"
     d="m 444.19448,492.09622 1.11719,7.69141 c 0.45703,2.96875 0.9414,5.89844 1.44531,8.80078 0.26172,1.45703 0.5,2.88672 0.79297,4.33985 l 0.9375,4.36718 c 1.27344,5.79297 2.64062,11.45313 4.09375,16.96094 0.043,0.16016 -0.0625,0.30078 -0.22266,0.32031 -11.28125,1.5 -23.13281,3.42969 -34.66015,6.32032 l -7.53516,1.87109 c -2.49219,0.62891 -4.95313,0.79687 -7.33984,0.53906 -2.39063,-0.26953 -4.71875,-0.98047 -6.84375,-2.10156 -2.1211,-1.10938 -4.03907,-2.62891 -5.61719,-4.50781 -1.58594,-1.89063 -2.8125,-4.13282 -3.46875,-6.63282 -1.35938,-5.01953 -0.46094,-10.28906 2.01953,-14.63671 2.54687,-4.30079 6.89062,-7.51954 11.94922,-8.71094 l 3.57422,-0.82031 c 0.53125,-0.1211 0.49609,-0.89844 -0.043,-0.96094 -5.45703,-0.57813 -10.84375,-1.46875 -17.21875,-0.48047 -0.27344,0.0508 -0.44922,-0.16797 -0.3086,-0.39063 l 6.125,-9.58984 6.5625,-9.29687 c 0.15235,-0.22266 0.41797,-0.14063 0.48047,0.13671 1.4961,6.27344 4.35547,10.9336 6.95703,15.76172 0.25782,0.48047 1,0.21094 0.91016,-0.32812 l -0.60156,-3.61328 c -0.8086,-5.13672 0.51172,-10.38672 3.55078,-14.35938 3.08203,-3.94922 7.625,-6.76953 12.78516,-7.41015 2.55859,-0.33985 5.10156,-0.0508 7.44921,0.69921 2.33594,0.75 4.46875,1.95313 6.30469,3.49219 1.83594,1.55078 3.375,3.42969 4.52735,5.55078 1.14453,2.10938 1.91015,4.44922 2.27734,6.98828"
     id="path1339" />
  <path
     fill-rule="nonzero"
     fill="#4a2b77"
     fill-opacity="1"
     d="m 470.44057,409.25638 -0.57031,6.26953 -0.37109,6.35156 c -0.21485,4.21094 -0.37891,8.3711 -0.48438,12.48829 -0.29297,8.15234 0.0156,16.54296 0.37891,24.57031 0.008,0.12109 0.10547,0.22265 0.23047,0.24219 8.10937,0.82812 15.85937,1.69921 23.76953,3.17968 3.91406,0.6875 7.77344,1.42969 11.57812,2.20703 l 5.66016,1.20313 5.69531,1.41797 c 0.13672,0.0312 0.25391,-0.0586 0.25,-0.1875 -0.0312,-3.83985 -0.008,-7.73047 0.0703,-11.65235 0.0859,-3.91796 0.17969,-7.94921 0.48438,-11.82031 0.55469,-7.80078 1.27344,-15.84765 2.33594,-23.89844 0.0195,-0.12109 -0.0586,-0.24218 -0.17969,-0.28125 -7.75,-2.23046 -15.63281,-4.14062 -23.79688,-5.96875 -4.10937,-0.94921 -8.125,-1.65234 -12.24218,-2.37109 -4.10938,-0.71094 -8.27735,-1.37109 -12.4961,-1.98828 -0.15234,-0.0195 -0.29687,0.0898 -0.3125,0.23828"
     id="path1340" />
  <path
     fill-rule="nonzero"
     fill="#4a2b77"
     fill-opacity="1"
     d="m 390.22964,575.89701 c -2.69922,1.10156 -5.41407,2.23046 -8.14063,3.39843 -3.17969,1.38282 -6.44531,2.78125 -9.59766,4.28125 -3.12109,1.5 -6.25781,3.0586 -9.41406,4.66016 -3.15234,1.60937 -6.32031,3.26172 -9.5039,4.96875 -3.17579,1.71094 -6.1875,3.51953 -9.3086,5.35156 -0.14844,0.0899 -0.20312,0.28125 -0.125,0.42969 6.48047,12.85937 13.85938,25.08984 21.55469,36.53125 1.69922,2.45703 3.40625,4.87891 5.11719,7.25 3.33984,4.66015 8.33593,7.41795 13.67968,8.29685 2.6875,0.4414 5.46485,0.4102 8.16016,-0.09 2.66016,-0.4883 5.24219,-1.4297 7.58594,-2.8281 4.71875,-2.8321 7.5039,-6.98051 8.66406,-11.48833 1.09766,-4.52343 -0.004,-9.57031 -2.89062,-14.11328 -1.47657,-2.25781 -2.94922,-4.55859 -4.41016,-6.88672 -0.0859,-0.13281 -0.0391,-0.29296 0.10156,-0.36328 2.46094,-1.1875 4.91406,-2.33984 7.35156,-3.45703 5.10157,-2.22265 8.55079,-5.9414 10.02735,-10.36328 1.53125,-4.38672 1.41797,-9.37891 -1.13281,-14.32812 -1.23829,-2.44141 -2.96094,-4.64844 -4.90625,-6.46875 -2.94922,-2.76172 -6.64454,-4.76172 -10.62891,-5.67969 -1.98438,-0.45313 -4.06641,-0.64063 -6.125,-0.51172 -2.03516,0.14844 -4.07813,0.60156 -6.05859,1.41016"
     id="path1341" />
  <path
     fill-rule="nonzero"
     fill="#4a2b77"
     fill-opacity="1"
     d="m 612.50698,366.88529 c 1.13672,4.42968 0.42969,8.85156 -1.50391,12.54297 -1.91406,3.76953 -5.0664,6.76953 -9.14062,8.1289 -1.96485,0.69141 -4.01563,0.83985 -5.97266,0.82031 -0.25,-0.0117 -0.30859,0.35938 -0.0742,0.44922 4.3125,1.73047 7.875,5.57032 9.51172,10.44922 1.49219,4.42969 1.21875,8.98047 -0.30078,12.73047 -1.48828,3.89063 -4.21094,6.99219 -7.94531,8.42969 -1.89453,0.76172 -3.91406,0.92187 -5.85938,0.85937 -1.94922,-0.0781 -3.90234,-0.59765 -5.7539,-1.48828 -3.69532,-1.76953 -7.00782,-5.01953 -8.90625,-9.35937 -2.11719,-4.82032 -1.96485,-10 0.11328,-14.28125 0.11328,-0.23828 -0.17188,-0.46094 -0.35156,-0.28907 -1.41797,1.39844 -3.10157,2.53125 -5.03516,3.30079 -1.98828,0.82031 -4.10547,1.10937 -6.15234,1.13671 -2.05079,0.0312 -4.10157,-0.33984 -6.05079,-1.07812 -3.89062,-1.46875 -7.39062,-4.37891 -9.47265,-8.44141 -2.17188,-4.23047 -2.39063,-8.91797 -0.89063,-13.11718 0.75,-2.10157 1.92188,-4.08204 3.46485,-5.80079 1.55078,-1.69921 3.53515,-3.01171 5.79297,-4 5.15625,-2.17187 10.66796,-1.91015 15.0625,0.59766 0.41015,0.24219 0.86718,-0.21875 0.60937,-0.60937 -2.40625,-3.66016 -5.57812,-6.82813 -9.38281,-9.14844 -0.87891,-0.53906 -1.80469,-1.0586 -2.79297,-1.53906 -0.22656,-0.1211 -0.24219,-0.3711 -0.0195,-0.47266 l 4.82031,-2.02734 4.91016,-1.82032 9.82422,-3.60937 c 0.22656,-0.082 0.38281,0.11719 0.28906,0.35937 -0.41016,1.02735 -0.75391,2.05078 -1.04688,3.05078 -1.26953,4.36719 -1.54687,8.81641 -0.92968,13.11719 0.0664,0.46094 0.71875,0.51172 0.87109,0.0703 1.65234,-4.71093 5.46094,-8.96093 10.83594,-10.53906 4.70703,-1.46875 9.53906,-0.94922 13.41406,1.1211 3.91406,2.13671 6.88281,5.86718 8.0625,10.45703"
     id="path1342" />
  <path
     fill-rule="nonzero"
     fill="#4a2b77"
     fill-opacity="1"
     d="m 824.85858,391.17826 -6.9219,3.32031 c -5.3594,2.70703 -10.6289,5.63672 -15.6992,8.52734 -5.06644,2.82031 -10.07425,6.01953 -14.90238,9.19922 -0.13671,0.0898 -0.30468,0.0508 -0.375,-0.0977 -2.42968,-5.25 -5.0039,-10.60937 -7.8164,-15.67968 -2.80078,-5.1211 -5.73438,-10.39063 -8.86328,-15.51172 l -4.12891,-6.46875 c -5.47656,-8.44922 -3.84766,-20.21875 4.91797,-26.05078 2.18359,-1.46094 4.60156,-2.41016 7.08984,-2.87891 2.47657,-0.42187 5.00391,-0.26172 7.44141,0.28906 2.43359,0.57032 4.76172,1.58985 6.82031,3.01172 1.03125,0.70703 1.99219,1.51953 2.86328,2.4375 0.86719,0.94141 1.63672,2 2.30469,3.14063 l 1.85937,3.19922 c 0.2773,0.48046 1.0078,0.22265 0.8984,-0.32032 -0.5586,-2.70703 -1.039,-5.42968 -1.7382,-8.19922 -0.70316,-2.78125 -1.62113,-5.59765 -3.09379,-8.41015 -0.1289,-0.23828 0.0234,-0.48047 0.27735,-0.41797 1.85156,0.41016 3.67574,0.91797 5.49604,1.44922 l 5.4688,1.55078 5.4687,1.55859 c 1.8204,0.51172 3.6407,1.03125 5.4297,1.67188 0.25,0.0781 0.2618,0.35937 0.024,0.5 -2.7305,1.60937 -5,3.52734 -7.0625,5.51953 -2.0508,1.98828 -3.8985,4.03906 -5.8008,6.05859 -0.3672,0.39063 0.1133,1 0.6016,0.73828 l 3.2695,-1.73828 c 1.1601,-0.62109 2.3789,-1.10937 3.6094,-1.46875 1.2226,-0.3125 2.4726,-0.49218 3.7226,-0.5625 2.5,-0.11718 5.0078,0.24219 7.3789,1.04297 2.3594,0.8086 4.5977,2.00781 6.4805,3.66797 1.8672,1.71094 3.4297,3.78906 4.5195,6.17969 4.3789,9.57031 -0.4414,20.4414 -9.539,24.74219"
     id="path1343" />
  <path
     fill-rule="nonzero"
     fill="#4a2b77"
     fill-opacity="1"
     d="m 911.79608,390.31497 c -8.3477,1.98047 -16.3907,4.03125 -24.3086,6.42188 -7.9922,2.51172 -15.6992,5.12109 -23.2188,7.98047 -0.1211,0.0391 -0.1914,0.16797 -0.1601,0.28906 1.7382,7.94922 3.1484,15.87891 4.3593,23.60156 1.1407,7.83985 1.9102,15.70703 2.5079,23.32032 0.012,0.1289 0.1406,0.20703 0.2695,0.16796 7.3125,-2.50781 14.7226,-4.64843 22.4414,-6.73828 3.8906,-1.08203 7.6719,-1.88281 11.582,-2.75 3.8867,-0.83984 7.8399,-1.64062 11.8399,-2.39062 0.1289,-0.0312 0.2187,-0.14063 0.207,-0.26172 -0.1484,-4.00781 -0.3594,-8.07031 -0.6172,-12.16797 -0.293,-4.08203 -0.5508,-8.32031 -1.043,-12.35156 -0.9375,-8.12891 -2.039,-16.5586 -3.5273,-24.91016 -0.031,-0.14062 -0.1797,-0.23828 -0.332,-0.21094"
     id="path1344" />
  <path
     fill-rule="nonzero"
     fill="#4a2b77"
     fill-opacity="1"
     d="m 728.49917,365.63529 c -1.8711,-2.28907 -3.78125,-4.57813 -5.73438,-6.72657 -4.57812,-5.12109 -9.36328,-10.30078 -14.35547,-15.39062 -4.99609,-4.91016 -10.20312,-9.8125 -15.61718,-14.70313 -0.12891,-0.10937 -0.32813,-0.10937 -0.44922,0.0117 -5.11328,5.12891 -10.01563,10.44922 -14.70703,15.66016 -1.17579,1.32031 -2.33594,2.60156 -3.48047,3.94141 l -3.39063,4.09765 c -2.23047,2.72266 -4.41406,5.44922 -6.54297,8.16016 -1.8125,2.33984 -3.60156,4.60156 -5.33203,6.99219 -3.38281,4.70703 -4.46094,10.34765 -3.64453,15.70703 0.41016,2.6914 1.29297,5.3125 2.59375,7.70312 1.28125,2.35938 2.96875,4.48828 5.01953,6.23828 4.14063,3.64063 8.97656,5.26953 13.59375,4.73828 2.3086,-0.29687 4.58985,-0.89843 6.71485,-2.05859 2.125,-1.14844 4.10546,-2.82031 5.8125,-4.98828 1.69531,-2.12109 3.41796,-4.35156 5.18359,-6.39063 0.10156,-0.12109 0.26953,-0.12109 0.37891,-0.0117 1.88671,2.03125 3.73828,4.0625 5.55859,6.08984 3.67578,4.10937 8.28125,6.01172 12.92578,6.30078 2.32813,0.0898 4.66797,-0.32812 6.92188,-1.28125 1.1289,-0.46875 2.23437,-1.09766 3.30078,-1.79687 1.0664,-0.69141 2.09375,-1.5 3.07422,-2.45313 1.9414,-1.88672 3.5,-4.12891 4.64062,-6.56641 3.45313,-7.38281 3.05469,-16.5625 -2.46484,-23.27343"
     id="path1345" />
  <path
     fill-rule="nonzero"
     fill="#4a2b77"
     fill-opacity="1"
     d="m 995.97578,512.44779 c -3.8594,2.44922 -8.3672,3.19922 -12.5196,2.52734 -4.1484,-0.67969 -7.9375,-2.77734 -10.4492,-6.25781 -1.1914,-1.71875 -2.1914,-3.46094 -2.7109,-5.3711 -0.07,-0.23828 -0.4297,-0.1875 -0.4493,0.0703 -0.3007,4.62109 -2.7304,9.08984 -6.9296,12.19922 -1.8711,1.39062 -3.9102,2.35937 -5.9883,2.96093 -2.1016,0.60938 -4.25,0.85157 -6.3203,0.73047 -4.1211,-0.24219 -7.8907,-1.89844 -10.3828,-5.05078 -1.2305,-1.62891 -2.1993,-3.34766 -2.6875,-5.25 -0.5118,-1.89844 -0.6016,-3.92969 -0.3204,-5.96875 0.5782,-4.08203 2.6602,-8.24219 6.211,-11.37891 3.9492,-3.49218 8.9062,-4.92187 13.5976,-4.24218 0.25,0.0391 0.3789,-0.30078 0.1602,-0.41797 -1.75,-0.9336 -3.3281,-2.20313 -4.6484,-3.82031 -1.3321,-1.69141 -2.3907,-3.49219 -3.0313,-5.44141 -0.6484,-1.94922 -0.9102,-4.03125 -0.8008,-6.12109 0.2227,-4.16797 1.9297,-8.41016 5.1524,-11.64063 3.3593,-3.35937 7.75,-5 12.1875,-4.83984 2.2226,0.082 4.4492,0.60156 6.5507,1.55078 2.1016,0.94922 4.0821,2.33203 5.6485,4.23047 3.6328,4.25 4.9726,9.66015 4.0117,14.55078 -0.078,0.44922 0.5117,0.73047 0.8008,0.37109 2.6992,-3.38281 4.6992,-7.33203 5.7773,-11.70312 0.25,-1.00782 0.461,-2.04688 0.6328,-3.13672 0.027,-0.25 0.2696,-0.35156 0.4297,-0.16016 l 3.3907,3.97656 c 1.1289,1.32032 2.2578,2.65235 3.2968,4.05079 l 6.38282,8.28125 c 0.1485,0.19921 0.01,0.41015 -0.25,0.39062 -1.1015,-0.082 -2.1718,-0.0898 -3.21092,-0.0703 -4.5195,0.12109 -8.8281,1.21875 -12.7305,3.1289 -0.4179,0.19922 -0.2695,0.83204 0.1993,0.85157 4.9804,0.1289 10.0703,2.52734 13.38282,7.02734 2.8086,4.05078 3.7578,8.83203 2.957,13.17188 -0.7891,4.35156 -3.32812,8.26171 -7.33982,10.80078"
     id="path1346" />
  <path
     fill-rule="nonzero"
     fill="#3c3c3b"
     fill-opacity="1"
     d="m 610.98354,845.32665 c -7.52734,0 -14.46094,-1.5585 -20.8125,-4.6679 -6.35547,-3.1133 -9.52734,-7.7813 -9.52734,-14 V 628.67826 l -11.28125,7 c -1.81641,1.03906 -3.56641,1.82031 -5.25,2.32812 -1.69141,0.51953 -3.17969,0.78125 -4.47266,0.78125 -5.70703,0 -10.30859,-2.53125 -13.80859,-7.58984 -3.5,-5.05078 -5.25,-10.5625 -5.25,-16.53125 0,-4.14063 0.90625,-8.03125 2.72265,-11.66016 1.8086,-3.62891 4.66797,-6.62109 8.5586,-8.94922 l 51.33984,-31.12109 c 1.55469,-1.02735 3.3086,-1.75 5.25,-2.14063 1.94531,-0.38672 3.95313,-0.57812 6.03125,-0.57812 6.22266,0 12.25,1.6914 18.08594,5.05859 5.83203,3.3711 8.75,8.03906 8.75,14 v 247.38284 c 0,6.2187 -3.17578,10.8867 -9.52734,14 -6.35938,3.1094 -13.29297,4.6679 -20.8086,4.6679"
     id="path1347" />
  <path
     fill-rule="nonzero"
     fill="#3c3c3b"
     fill-opacity="1"
     d="m 772.01089,724.35795 c -6.22657,0 -11.08594,-1.8828 -14.58594,-5.6406 -3.5,-3.7617 -5.25391,-8.6211 -5.25391,-14.5899 0,-5.6992 1.75391,-10.3008 5.25391,-13.8008 3.5,-3.5 8.35937,-5.25 14.58594,-5.25 5.96093,0 10.69531,1.75 14.19531,5.25 3.5,3.5 5.25,8.1016 5.25,13.8008 0,5.9688 -1.75,10.8282 -5.25,14.5899 -3.5,3.7578 -8.23438,5.6406 -14.19531,5.6406 z m -0.39063,70.3984 c 10.89063,0 19.44922,-3.1093 25.67188,-9.3281 6.22654,-6.2305 9.33594,-16.082 9.33594,-29.5625 v -103.0781 c 0,-13.48049 -3.1094,-23.33986 -9.33594,-29.56252 -6.22266,-6.21875 -14.78125,-9.32812 -25.67188,-9.32812 -10.89062,0 -19.38672,3.10937 -25.47656,9.32812 -6.09766,6.22266 -9.14063,16.08203 -9.14063,29.56252 v 103.0781 c 0,13.4805 3.04297,23.332 9.14063,29.5625 6.08984,6.2188 14.58594,9.3281 25.47656,9.3281 z m 0,52.9024 c -17.89062,0 -34.03516,-2.9805 -48.42578,-8.9531 -14.39063,-5.9571 -25.80469,-15.6797 -34.22656,-29.168 -8.42969,-13.4805 -12.64063,-31.3711 -12.64063,-53.6719 v -103.0781 c 0,-22.3008 4.21094,-40.19143 12.64063,-53.67971 8.42187,-13.47265 19.83593,-23.19922 34.22656,-29.17187 14.39062,-5.96094 30.53516,-8.9375 48.42578,-8.9375 17.89453,0 34.09762,2.97656 48.61722,8.9375 14.5195,5.97265 26,15.69922 34.4297,29.17187 8.4179,13.48828 12.6406,31.37891 12.6406,53.67971 v 103.0781 c 0,22.3008 -4.2227,40.1914 -12.6406,53.6719 -8.4297,13.4883 -19.9102,23.2109 -34.4297,29.168 -14.5196,5.9726 -30.72269,8.9531 -48.61722,8.9531"
     id="path1348" />
</svg>
